#!OML:ASF X:\für Bonn\!DataBase\2005_08_11_Bastian_Final\c3d\Bastian.ASF
:FULLY-SPECIFIED
:DEGREES
538
root 0.576457 1.2126 20.3452 -640.428 -0.984777 -178.722
lowerback 9.83274 -1.18173 3.61139
upperback 8.06568 -2.10332 1.55233
thorax 2.85369 -1.30978 -0.28093
lowerneck -12.7005 -5.13705 -6.60288
upperneck 6.8221 -6.28222 4.90375
head 4.46607 -3.01142 2.08992
rclavicle -9.93923e-015 -6.95746e-015
rhumerus -56.8045 49.6675 -111.021
rradius 24.7096
rwrist -9.32923
rhand -11.4671 -1.13941
rfingers 7.12502
rthumb 14.5705 -30.6077
lclavicle -9.93923e-015 -6.95746e-015
lhumerus -40.5617 -39.1006 104.746
lradius 17.4219
lwrist 22.3707
lhand -7.48087 -5.08414
lfingers 7.12502
lthumb 18.4083 24.0648
rfemur 1.00336 7.05842 22.8562
rtibia 31.8541
rfoot -14.893 -25.6456
rtoes 1.32542
lfemur 5.31508 3.67414 -15.2684
ltibia 21.2168
lfoot -1.64651 8.38759
ltoes -4.78427
539
root 0.57578 1.21186 20.3465 -640.38 -0.962432 -178.746
lowerback 9.80421 -1.18102 3.63538
upperback 8.02691 -2.09668 1.5778
thorax 2.82871 -1.30425 -0.268439
lowerneck -12.8402 -5.1385 -6.60772
upperneck 6.71116 -6.27047 4.90074
head 4.45371 -3.00389 2.08883
rclavicle 2.18663e-014 -4.75095e-014
rhumerus -56.912 49.6796 -111.064
rradius 24.734
rwrist -9.35067
rhand -11.4699 -1.16332
rfingers 7.12502
rthumb 14.5677 -30.6318
lclavicle 2.18663e-014 -4.75095e-014
lhumerus -40.563 -39.0437 104.761
lradius 17.3853
lwrist 22.2825
lhand -7.44581 -5.1604
lfingers 7.12502
lthumb 18.442 23.9854
rfemur 0.947597 7.02133 22.859
rtibia 31.8393
rfoot -14.8406 -25.619
rtoes 1.16378
lfemur 5.24864 3.68305 -15.2601
ltibia 21.2362
lfoot -1.6113 8.35989
ltoes -5.07528
540
root 0.575932 1.21069 20.3477 -640.332 -0.963035 -178.736
lowerback 9.7609 -1.18553 3.6589
upperback 8.00585 -2.09758 1.55641
thorax 2.8285 -1.30079 -0.304516
lowerneck -12.9374 -5.14156 -6.54219
upperneck 6.54398 -6.27867 4.91685
head 4.41668 -3.00495 2.08224
rclavicle 1.19271e-014 -8.05078e-015
rhumerus -56.964 49.6884 -111.155
rradius 24.738
rwrist -9.39139
rhand -11.4932 -1.16758
rfingers 7.12502
rthumb 14.5453 -30.6376
lclavicle 1.19271e-014 -8.05078e-015
lhumerus -40.564 -39.0907 104.739
lradius 17.3701
lwrist 22.2801
lhand -7.36113 -5.1796
lfingers 7.12502
lthumb 18.5235 23.9585
rfemur 0.901214 7.06782 22.86
rtibia 31.8256
rfoot -14.8451 -25.6669
rtoes 1.13152
lfemur 5.17886 3.72722 -15.2581
ltibia 21.2542
lfoot -1.5566 8.28189
ltoes -5.09917
541
root 0.57581 1.20953 20.3496 -640.257 -0.942192 -178.759
lowerback 9.68497 -1.18096 3.68767
upperback 7.98452 -2.08826 1.56128
thorax 2.84708 -1.29243 -0.318128
lowerneck -13.0729 -5.1429 -6.48522
upperneck 6.41111 -6.27736 4.9004
head 4.395 -3.00252 2.06665
rclavicle 2.14687e-014 7.65321e-015
rhumerus -56.9706 49.6801 -111.153
rradius 24.7419
rwrist -9.38395
rhand -11.4767 -1.20976
rfingers 7.12502
rthumb 14.5612 -30.6787
lclavicle 2.14687e-014 7.65321e-015
lhumerus -40.5464 -39.0926 104.706
lradius 17.3507
lwrist 22.2233
lhand -7.27893 -5.25734
lfingers 7.12502
lthumb 18.6025 23.8732
rfemur 0.812389 7.06081 22.8673
rtibia 31.815
rfoot -14.8049 -25.6499
rtoes 1.01716
lfemur 5.08862 3.7332 -15.2532
ltibia 21.2666
lfoot -1.54355 8.27335
ltoes -5.39299
542
root 0.575193 1.20853 20.3509 -640.208 -0.946242 -178.768
lowerback 9.64528 -1.18105 3.68447
upperback 7.96104 -2.0866 1.57737
thorax 2.84451 -1.2905 -0.300525
lowerneck -13.2135 -5.1501 -6.49102
upperneck 6.28393 -6.2735 4.89666
head 4.37811 -2.99934 2.06498
rclavicle 2.22639e-014 -9.93923e-016
rhumerus -57.0724 49.7289 -111.216
rradius 24.7663
rwrist -9.41199
rhand -11.5054 -1.23643
rfingers 7.12502
rthumb 14.5336 -30.7073
lclavicle 2.22639e-014 -9.93923e-016
lhumerus -40.5254 -39.0391 104.683
lradius 17.3557
lwrist 22.1505
lhand -7.20657 -5.27557
lfingers 7.12502
lthumb 18.6721 23.8483
rfemur 0.760831 7.07532 22.8501
rtibia 31.8007
rfoot -14.8395 -25.6466
rtoes 0.968874
lfemur 5.02081 3.70233 -15.2807
ltibia 21.2836
lfoot -1.53768 8.29129
ltoes -5.49929
543
root 0.575045 1.20728 20.3519 -640.173 -0.947707 -178.767
lowerback 9.61809 -1.18203 3.68736
upperback 7.94235 -2.08528 1.5768
thorax 2.83942 -1.28823 -0.303248
lowerneck -13.328 -5.15026 -6.4212
upperneck 6.13965 -6.27322 4.86741
head 4.34868 -2.99837 2.04391
rclavicle 7.95139e-016 -6.36111e-015
rhumerus -57.0744 49.7037 -111.2
rradius 24.7604
rwrist -9.39715
rhand -11.5076 -1.23934
rfingers 7.12502
rthumb 14.5314 -30.7104
lclavicle 7.95139e-016 -6.36111e-015
lhumerus -40.4893 -39.0199 104.643
lradius 17.312
lwrist 22.0889
lhand -7.13165 -5.34659
lfingers 7.12502
lthumb 18.7442 23.7703
rfemur 0.720288 7.06663 22.838
rtibia 31.7881
rfoot -14.8168 -25.6422
rtoes 0.964557
lfemur 4.97111 3.65471 -15.3069
ltibia 21.2977
lfoot -1.55145 8.31965
ltoes -5.63628
544
root 0.573926 1.20655 20.3541 -640.114 -0.924701 -178.783
lowerback 9.5484 -1.18288 3.74599
upperback 7.93771 -2.08329 1.56468
thorax 2.87087 -1.28254 -0.350738
lowerneck -13.4929 -5.1584 -6.37188
upperneck 6.00329 -6.28234 4.8762
head 4.3322 -3.00021 2.03587
rclavicle 6.36111e-015 1.49089e-014
rhumerus -57.0161 49.6792 -111.181
rradius 24.7306
rwrist -9.35231
rhand -11.5327 -1.23847
rfingers 7.12502
rthumb 14.5072 -30.7113
lclavicle 6.36111e-015 1.49089e-014
lhumerus -40.4491 -39.0381 104.567
lradius 17.2937
lwrist 22.0489
lhand -7.04085 -5.41728
lfingers 7.12502
lthumb 18.8315 23.6912
rfemur 0.655669 7.07568 22.8464
rtibia 31.7754
rfoot -14.8302 -25.6357
rtoes 0.974614
lfemur 4.89355 3.68317 -15.289
ltibia 21.307
lfoot -1.53588 8.30128
ltoes -5.97755
545
root 0.573865 1.20575 20.3557 -640.053 -0.929334 -178.792
lowerback 9.49122 -1.18084 3.74397
upperback 7.91406 -2.07812 1.56432
thorax 2.87711 -1.27761 -0.351604
lowerneck -13.6452 -5.16286 -6.31667
upperneck 5.88369 -6.28532 4.85566
head 4.31728 -3.00047 2.0185
rclavicle -9.14409e-015 1.42131e-014
rhumerus -57.0378 49.6673 -111.188
rradius 24.7345
rwrist -9.3428
rhand -11.5429 -1.26713
rfingers 7.12502
rthumb 14.4974 -30.7406
lclavicle -9.14409e-015 1.42131e-014
lhumerus -40.4432 -39.0597 104.551
lradius 17.2678
lwrist 22.0377
lhand -6.96301 -5.48433
lfingers 7.12502
lthumb 18.9064 23.6168
rfemur 0.586693 7.06334 22.8263
rtibia 31.7636
rfoot -14.7972 -25.6202
rtoes 0.977211
lfemur 4.82111 3.64906 -15.3168
ltibia 21.3172
lfoot -1.5422 8.33499
ltoes -6.11552
546
root 0.573825 1.20473 20.3569 -640.005 -0.931887 -178.791
lowerback 9.44741 -1.1875 3.73594
upperback 7.89973 -2.08713 1.57464
thorax 2.88611 -1.28143 -0.336881
lowerneck -13.836 -5.16016 -6.28447
upperneck 5.78896 -6.27159 4.82673
head 4.31565 -2.99273 2.00259
rclavicle 7.55382e-015 1.14301e-014
rhumerus -57.1232 49.7352 -111.259
rradius 24.7575
rwrist -9.3558
rhand -11.5763 -1.29529
rfingers 7.12502
rthumb 14.4652 -30.7711
lclavicle 7.55382e-015 1.14301e-014
lhumerus -40.3709 -38.9661 104.474
lradius 17.2334
lwrist 21.9272
lhand -6.89654 -5.52579
lfingers 7.12502
lthumb 18.9703 23.5691
rfemur 0.535099 7.02739 22.7989
rtibia 31.7454
rfoot -14.7872 -25.5779
rtoes 1.00996
lfemur 4.75309 3.57629 -15.3453
ltibia 21.3358
lfoot -1.57624 8.40491
ltoes -6.14864
547
root 0.57313 1.20375 20.3583 -639.944 -0.912507 -178.804
lowerback 9.37885 -1.18674 3.76601
upperback 7.88776 -2.08452 1.58001
thorax 2.9105 -1.27708 -0.350174
lowerneck -13.998 -5.16939 -6.25519
upperneck 5.67618 -6.28023 4.83749
head 4.30649 -2.9949 1.99822
rclavicle 1.03368e-014 -4.67144e-015
rhumerus -57.1636 49.7864 -111.309
rradius 24.774
rwrist -9.41306
rhand -11.5784 -1.34337
rfingers 7.12502
rthumb 14.4632 -30.8193
lclavicle 1.03368e-014 -4.67144e-015
lhumerus -40.317 -38.9687 104.42
lradius 17.193
lwrist 21.9035
lhand -6.86502 -5.58432
lfingers 7.12502
lthumb 19.0006 23.5076
rfemur 0.467852 7.03807 22.805
rtibia 31.7328
rfoot -14.8017 -25.5588
rtoes 1.17243
lfemur 4.681 3.57701 -15.3318
ltibia 21.342
lfoot -1.59459 8.41439
ltoes -6.14063
